<?xml version="1.0" standalone="no"?>
<!DOCTYPE svg PUBLIC "-//W3C//DTD SVG 20010904//EN"
 "http://www.w3.org/TR/2001/REC-SVG-20010904/DTD/svg10.dtd">
<svg version="1.0" xmlns="http://www.w3.org/2000/svg"
 width="1136.000000pt" height="1591.000000pt" viewBox="0 0 1136.000000 1591.000000"
 preserveAspectRatio="xMidYMid meet">

<g transform="translate(0.000000,1591.000000) scale(0.100000,-0.100000)"
fill="#000000" stroke="none">
<path d="M3630 13868 c0 -13 -8 -18 -30 -18 -16 0 -30 5 -30 11 0 8 -4 8 -13
1 -7 -6 -51 -13 -99 -16 -223 -14 -549 -99 -716 -187 -60 -32 -176 -112 -236
-164 -30 -26 -85 -99 -80 -107 3 -4 -3 -20 -14 -36 -25 -35 -48 -139 -44 -192
1 -8 2 -43 4 -77 1 -34 5 -60 10 -57 4 3 8 -9 8 -25 0 -17 5 -31 10 -31 6 0
10 -6 9 -12 -1 -7 1 -20 4 -28 23 -57 32 -297 11 -293 -7 1 -9 -8 -6 -23 3
-16 8 -22 16 -16 20 17 48 10 43 -10 -3 -10 -1 -18 5 -18 7 0 8 -44 4 -127
-11 -204 -11 -253 -3 -253 4 0 7 15 7 34 0 19 4 37 9 41 6 3 13 27 17 53 5 36
9 42 14 27 4 -11 5 -24 2 -29 -3 -5 0 -6 7 -2 15 9 71 -51 71 -76 0 -10 5 -18
11 -18 6 0 9 7 5 15 -3 8 -1 15 4 15 6 0 10 -7 10 -15 0 -8 4 -15 9 -15 5 0
17 -7 26 -17 12 -11 19 -13 24 -5 4 6 18 13 31 14 14 2 32 11 42 21 10 11 17
14 20 7 2 -7 14 -3 32 11 21 17 30 19 36 9 4 -7 13 -9 19 -6 6 4 11 3 11 -2 0
-15 -33 -24 -40 -11 -6 8 -9 8 -14 0 -4 -6 -2 -11 3 -11 6 0 11 -9 11 -20 0
-11 -4 -20 -10 -20 -5 0 -10 -8 -10 -18 0 -11 -9 -27 -20 -37 -11 -10 -20 -24
-20 -32 0 -7 -6 -13 -14 -13 -8 0 -16 -10 -20 -23 -6 -26 -76 -111 -84 -103
-3 3 -11 1 -18 -5 -18 -14 -69 -5 -91 18 -42 43 -57 66 -70 110 -12 45 -13 40
-10 -87 3 -120 6 -140 29 -185 14 -27 30 -72 37 -99 7 -27 23 -71 37 -99 15
-28 28 -74 31 -106 5 -58 20 -111 32 -111 4 0 7 -8 8 -17 5 -47 44 -215 61
-259 11 -27 25 -74 32 -104 7 -30 23 -73 35 -95 13 -22 26 -54 30 -72 3 -17
12 -37 20 -43 8 -6 12 -17 9 -25 -3 -7 2 -28 12 -46 9 -19 23 -60 31 -93 7
-33 27 -80 43 -105 22 -32 30 -56 30 -88 0 -30 4 -43 14 -43 8 0 16 -7 20 -15
3 -8 11 -14 18 -13 7 2 13 -5 13 -14 0 -9 4 -20 8 -24 13 -14 7 -22 -13 -17
-14 4 -20 0 -20 -11 0 -9 6 -16 13 -16 6 0 18 -4 26 -9 12 -8 12 -12 2 -25 -7
-9 -11 -26 -8 -38 4 -12 1 -28 -5 -35 -7 -9 -7 -13 1 -13 6 0 11 5 11 10 0 19
17 10 29 -16 6 -14 29 -42 51 -62 28 -25 39 -41 34 -54 -3 -10 0 -18 6 -18 6
0 20 -16 32 -35 15 -27 25 -34 40 -29 14 4 21 0 25 -16 4 -15 11 -20 24 -17
11 3 19 1 19 -4 0 -6 11 -21 26 -35 23 -24 24 -27 8 -38 -16 -12 -15 -13 5
-19 12 -3 21 -13 21 -24 0 -11 7 -28 15 -39 15 -19 16 -19 14 1 -2 24 10 55
22 55 5 0 9 -7 9 -15 0 -8 9 -20 21 -27 11 -7 27 -28 36 -45 14 -31 41 -42 78
-33 51 13 55 12 55 -13 0 -21 4 -24 23 -20 12 3 29 11 37 18 25 21 64 25 84 9
28 -20 36 -18 36 11 0 16 -6 25 -15 25 -8 0 -15 7 -15 15 0 8 7 15 15 15 8 0
15 -6 15 -13 0 -18 43 -54 58 -49 7 2 18 -1 25 -7 8 -6 35 -10 63 -9 29 0 41
4 31 7 -15 6 -16 9 -5 17 18 14 101 16 171 3 88 -16 291 -13 376 6 127 27 251
73 391 147 350 183 630 403 749 587 56 87 52 95 -10 20 l-52 -61 -19 31 c-26
41 -37 92 -38 170 l0 65 -35 -34 c-38 -37 -44 -36 -47 3 -1 15 -8 27 -16 27
-8 0 -12 6 -9 14 3 8 -1 20 -10 27 -12 11 -17 11 -27 -2 -13 -18 -45 -33 -63
-30 -7 1 -13 -2 -13 -7 0 -6 -7 -13 -16 -16 -8 -3 -12 -2 -9 3 3 5 1 12 -5 16
-5 3 -10 19 -10 36 0 16 -4 29 -10 29 -5 0 -10 5 -10 11 0 8 4 8 13 1 10 -9
20 -7 38 5 44 31 51 41 40 62 -8 14 -6 24 9 41 10 12 27 43 36 69 32 91 71
181 75 177 2 -2 5 5 5 17 1 12 3 27 4 32 1 6 2 20 1 33 -1 19 -5 21 -26 16
-14 -3 -25 -4 -25 0 0 3 15 9 32 14 27 7 33 14 35 38 2 26 1 27 -12 11 -13
-18 -14 -17 -20 2 -3 12 -11 19 -16 15 -5 -3 -7 -14 -4 -24 4 -13 -1 -22 -14
-29 -28 -16 -33 -14 -26 9 4 11 3 19 -2 18 -4 -2 -8 2 -8 7 0 6 6 9 14 8 16
-2 41 20 41 36 0 5 5 13 12 17 8 5 9 2 5 -9 -3 -10 -3 -17 2 -17 5 0 11 10 15
23 9 33 8 37 -10 37 -8 0 -13 3 -11 8 3 4 2 25 -2 47 l-8 40 -8 -40 c-4 -22
-16 -51 -26 -64 l-19 -24 0 32 c0 17 -5 31 -11 31 -5 0 -7 -4 -4 -10 4 -6 -5
-10 -19 -10 -24 0 -25 2 -14 20 7 11 20 20 28 21 9 0 6 4 -7 9 -13 5 -23 17
-22 27 0 16 1 16 9 -2 5 -11 9 -14 9 -6 1 7 7 11 16 7 8 -3 15 -1 15 5 0 5
-10 14 -22 19 -22 8 -22 9 -2 9 11 1 25 -4 31 -10 8 -8 13 -8 17 0 4 6 2 11
-3 11 -6 0 -11 5 -11 10 0 6 7 10 15 10 12 0 12 3 -2 18 -17 17 -18 17 -26 -6
-12 -30 -31 -23 -35 12 -2 19 0 26 7 21 6 -3 9 -11 6 -16 -4 -5 -2 -9 3 -9 8
0 22 22 22 35 0 1 -9 5 -20 8 -13 3 -21 -1 -25 -14 -4 -10 -13 -19 -20 -19
-10 0 -12 6 -8 18 6 14 4 15 -9 5 -8 -7 -18 -10 -21 -6 -4 3 -7 1 -7 -5 0 -7
7 -12 15 -12 8 0 15 -5 15 -11 0 -6 7 -9 15 -5 9 3 15 0 15 -10 0 -8 -4 -12
-10 -9 -5 3 -10 1 -10 -4 0 -6 -7 -11 -15 -11 -8 0 -15 -8 -15 -17 -1 -10 -8
-2 -18 18 -11 22 -22 34 -31 31 -10 -3 -12 0 -8 12 4 9 2 16 -2 16 -5 0 -12
-6 -14 -12 -3 -7 -6 -3 -6 9 -1 12 -6 25 -12 29 -8 5 -8 9 1 14 9 6 9 13 1 29
-10 17 -9 21 4 21 8 0 15 5 15 11 0 7 -7 8 -17 4 -21 -8 -22 -8 -44 -6 -22 1
-50 101 -28 101 5 0 9 -5 9 -11 0 -5 5 -7 12 -3 8 5 6 10 -5 19 -8 6 -18 28
-22 48 -5 27 -12 37 -26 37 -10 0 -21 5 -25 11 -5 9 1 10 20 5 14 -3 26 -4 26
0 0 12 -30 35 -40 29 -5 -3 -10 1 -10 11 0 9 -8 23 -17 30 -11 8 -13 13 -5 14
22 0 13 28 -10 32 -19 2 -22 8 -20 36 2 19 -1 32 -8 32 -6 0 -8 -4 -5 -10 3
-5 0 -10 -9 -10 -14 0 -18 11 -32 93 -4 25 -12 37 -23 37 -13 0 -14 2 -2 9 12
8 12 12 2 24 -10 13 -9 15 8 10 12 -3 21 -14 21 -24 0 -11 5 -19 10 -19 6 0
10 9 10 19 0 11 -4 23 -10 26 -5 3 -10 11 -10 18 0 8 3 8 12 -1 20 -20 28 -14
18 13 -11 29 4 44 19 18 6 -10 11 -14 11 -10 0 4 -8 20 -17 34 -17 26 -17 27
0 20 15 -6 17 -3 12 13 -5 16 -2 20 14 20 23 0 28 15 9 23 -7 3 3 6 22 8 23 1
27 3 14 6 -12 2 -24 13 -27 24 -6 21 8 27 16 7 3 -7 6 1 6 17 0 20 -2 26 -8
17 -10 -17 -43 -12 -47 6 -1 7 0 8 3 2 8 -16 33 -12 33 6 0 11 6 14 20 9 15
-5 18 -3 14 9 -4 9 0 18 9 22 12 4 15 18 12 57 -1 29 -1 41 2 27 10 -57 21
-37 16 31 -5 66 -4 72 11 60 11 -9 16 -10 16 -2 0 6 -7 14 -16 18 -13 5 -13 7
-2 14 10 7 10 9 1 9 -7 0 -13 5 -13 10 0 6 12 10 26 10 25 0 26 -2 20 -37 -3
-21 -6 -43 -6 -50 0 -7 -7 -10 -17 -7 -13 4 -14 3 -5 -3 7 -5 13 -30 14 -56 2
-44 17 -68 19 -29 4 89 7 134 12 172 4 25 3 59 -3 75 -9 26 -9 23 -5 -19 6
-55 -2 -56 -15 -3 -4 19 -3 42 2 51 7 12 5 16 -8 16 -11 0 -14 5 -10 16 4 9 1
23 -5 31 -7 7 -9 16 -6 20 4 3 2 12 -4 20 -7 7 -9 26 -5 43 3 17 2 30 -2 30
-4 0 -8 36 -8 81 -1 78 0 80 16 59 14 -18 23 -21 48 -16 25 6 31 4 36 -12 5
-14 13 -18 27 -15 12 4 27 -2 39 -13 10 -11 46 -39 80 -63 59 -43 110 -114
110 -156 0 -8 6 -15 13 -15 21 0 95 -79 117 -124 11 -24 20 -63 20 -89 0 -33
5 -49 15 -53 8 -3 17 -22 21 -42 4 -21 14 -49 22 -64 14 -23 14 -31 2 -53 -15
-28 -30 -17 -30 23 0 31 -17 62 -34 62 -21 0 -29 -61 -27 -210 2 -136 6 -176
23 -196 4 -6 7 -56 6 -110 l-3 -99 28 -3 c43 -5 76 21 75 59 -1 27 9 42 65 94
l67 62 0 127 0 127 50 49 c62 60 76 112 66 242 -3 49 -2 88 3 88 11 0 21 -25
21 -51 0 -10 4 -19 9 -19 13 0 20 141 8 168 -6 12 -49 46 -96 74 -47 29 -130
86 -185 128 -93 71 -161 121 -342 251 -74 53 -238 158 -312 200 -188 107 -500
242 -590 256 -18 3 -35 9 -38 14 -3 5 -18 9 -34 9 -16 0 -32 5 -35 10 -4 6
-11 8 -16 5 -5 -3 -23 1 -41 9 -27 12 -88 22 -160 26 -5 0 -9 10 -9 23 -1 16
-2 18 -6 5 -5 -20 -59 -25 -65 -7 -3 8 -10 8 -25 -2 -19 -11 -25 -11 -41 4
-11 11 -22 13 -28 7 -14 -14 -54 0 -55 19 0 10 -2 11 -6 4 -6 -17 -73 -17 -73
-1 0 9 -3 9 -12 0 -16 -16 -58 -16 -58 0 0 9 -3 9 -12 0 -18 -18 -55 -15 -67
6 -10 16 -10 16 -11 0 0 -12 -8 -18 -25 -18 -13 0 -29 8 -34 18 -10 16 -10 16
-11 0z m-715 -218 c-3 -5 -12 -10 -18 -10 -7 0 -6 4 3 10 19 12 23 12 15 0z
m-155 -89 c0 -5 -14 -14 -31 -20 -23 -8 -30 -8 -26 2 2 6 11 11 20 9 8 -1 18
2 22 8 8 12 15 13 15 1z m-7 -38 c-7 -2 -13 -9 -13 -14 0 -6 4 -7 10 -4 5 3
17 2 27 -3 15 -9 14 -10 -4 -16 -12 -4 -23 -16 -26 -26 -7 -26 -32 -25 -65 2
-15 11 -20 18 -10 15 9 -3 29 -2 45 2 l28 8 -24 8 -24 7 24 14 c13 7 29 13 34
13 6 0 4 -3 -2 -6z m-119 -21 c2 -4 -4 -8 -14 -8 -10 0 -16 4 -14 8 3 4 9 8
14 8 5 0 11 -4 14 -8z m133 -108 c-3 -3 -12 -4 -19 -1 -8 3 -5 6 6 6 11 1 17
-2 13 -5z m2073 -150 c0 -14 -4 -23 -10 -19 -5 3 -10 15 -10 26 0 10 5 19 10
19 6 0 10 -12 10 -26z m-1233 -26 c-3 -7 -5 -2 -5 12 0 14 2 19 5 13 2 -7 2
-19 0 -25z m-863 -3 c-16 -13 -17 -16 -4 -25 13 -8 12 -10 -5 -10 -11 0 -15
-4 -10 -8 17 -12 15 -44 -2 -37 -9 3 -23 -2 -32 -10 -48 -47 -72 -63 -88 -61
-15 3 -17 12 -14 62 4 71 5 74 37 74 13 0 24 4 24 9 0 9 30 16 89 19 24 2 24
1 5 -13z m2126 -16 c0 -11 -4 -17 -10 -14 -5 3 -10 15 -10 26 0 11 5 17 10 14
6 -3 10 -15 10 -26z m42 -26 c7 -9 6 -13 -3 -13 -11 -1 -11 -3 1 -13 16 -13
24 -71 9 -61 -5 3 -9 14 -9 24 0 10 -4 20 -9 22 -10 3 -14 30 -11 68 2 21 3
22 7 5 3 -11 10 -26 15 -32z m21 27 c3 -11 1 -20 -4 -20 -5 0 -9 9 -9 20 0 11
2 20 4 20 2 0 6 -9 9 -20z m34 -12 c-3 -7 -5 -2 -5 12 0 14 2 19 5 13 2 -7 2
-19 0 -25z m100 -30 c-3 -7 -5 -2 -5 12 0 14 2 19 5 13 2 -7 2 -19 0 -25z
m-192 2 c3 -5 2 -10 -4 -10 -5 0 -13 5 -16 10 -3 6 -2 10 4 10 5 0 13 -4 16
-10z m162 -43 c11 4 14 2 9 -5 -4 -7 -2 -12 3 -12 6 0 11 -16 11 -35 0 -19 -4
-35 -10 -35 -5 0 -7 13 -4 30 6 25 3 31 -19 39 -21 8 -25 15 -22 38 5 41 8 42
12 6 3 -24 8 -30 20 -26z m133 13 c0 -5 -4 -10 -10 -10 -5 0 -10 5 -10 10 0 6
5 10 10 10 6 0 10 -4 10 -10z m-72 -45 c-3 -56 -15 -59 -20 -5 -3 34 1 43 19
49 2 1 2 -19 1 -44z m-208 25 c0 -5 -4 -10 -10 -10 -5 0 -10 5 -10 10 0 6 5
10 10 10 6 0 10 -4 10 -10z m187 -112 c-3 -7 -5 -2 -5 12 0 14 2 19 5 13 2 -7
2 -19 0 -25z m33 12 c0 -5 -5 -10 -11 -10 -5 0 -7 5 -4 10 3 6 8 10 11 10 2 0
4 -4 4 -10z m-960 -135 c0 -8 -4 -15 -10 -15 -5 0 -10 7 -10 15 0 8 5 15 10
15 6 0 10 -7 10 -15z m261 -5 c10 -6 19 -19 19 -30 0 -15 -10 -20 -45 -26 -51
-7 -50 -8 -60 26 -7 23 -7 24 11 6 18 -18 18 -18 27 8 9 28 18 31 48 16z m729
-11 c0 -5 -4 -9 -10 -9 -5 0 -10 7 -10 16 0 8 5 12 10 9 6 -3 10 -10 10 -16z
m-1750 -64 c-10 -12 -10 -15 4 -15 12 0 16 -7 13 -25 -2 -14 -6 -25 -10 -25
-4 0 -13 0 -19 0 -9 0 -8 4 2 10 12 8 11 10 -7 10 -13 0 -23 4 -23 10 0 11 43
58 49 53 2 -1 -2 -9 -9 -18z m925 6 c-3 -6 -11 -11 -17 -11 -6 0 -6 6 2 15 14
17 26 13 15 -4z m785 -1 c0 -5 -4 -10 -10 -10 -5 0 -10 5 -10 10 0 6 5 10 10
10 6 0 10 -4 10 -10z m43 -21 c-4 -21 -1 -34 8 -41 12 -8 11 -9 -1 -5 -17 4
-27 77 -11 77 6 0 8 -12 4 -31z m-2293 11 c0 -5 -7 -10 -15 -10 -8 0 -15 5
-15 10 0 6 7 10 15 10 8 0 15 -4 15 -10z m210 -51 c0 -12 -9 -21 -27 -25 -16
-3 -33 -7 -40 -9 -8 -3 -8 6 -1 33 6 20 12 40 15 44 7 13 53 -24 53 -43z m60
33 c0 -13 -12 -22 -22 -16 -10 6 -1 24 13 24 5 0 9 -4 9 -8z m220 -29 c0 -18
-28 -53 -41 -53 -5 0 -1 16 8 35 18 37 33 46 33 18z m-529 -40 l24 -27 -24 15
c-14 9 -27 21 -29 27 -6 19 3 14 29 -15z m-238 -29 c-4 -38 -28 -79 -52 -89
-20 -8 -22 -3 -10 41 10 36 44 84 59 84 4 0 5 -16 3 -36z m3162 5 c22 -41 13
-48 -14 -11 -23 33 -26 42 -11 42 5 0 17 -14 25 -31z m-2905 -43 c0 -8 6 -17
13 -19 26 -11 -18 -27 -67 -25 -34 2 -52 8 -60 21 -15 24 7 37 67 37 34 0 47
-4 47 -14z m2247 -63 c-3 -10 -5 -4 -5 12 0 17 2 24 5 18 2 -7 2 -21 0 -30z
m698 -23 c11 -17 -5 -32 -21 -19 -7 6 -11 15 -8 20 7 12 21 11 29 -1z m-741
-171 c-10 -16 -24 -9 -24 12 0 18 2 19 15 9 8 -7 12 -16 9 -21z m-1920 0 c-3
-6 1 -10 12 -9 39 4 59 -10 61 -43 4 -42 -16 -90 -33 -83 -9 3 -14 -2 -14 -14
0 -10 -4 -21 -9 -24 -5 -4 -7 11 -4 34 5 38 4 40 -23 46 -16 3 -38 12 -49 20
-19 14 -19 16 -2 28 9 7 17 18 17 23 0 6 10 15 23 21 29 14 29 14 21 1z m1856
-94 c0 -5 -5 -3 -10 5 -5 8 -10 20 -10 25 0 6 5 3 10 -5 5 -8 10 -19 10 -25z
m-2300 -39 c0 -3 -4 -8 -10 -11 -5 -3 -10 -1 -10 4 0 6 5 11 10 11 6 0 10 -2
10 -4z m890 -66 c0 -5 -2 -10 -4 -10 -3 0 -8 5 -11 10 -3 6 -1 10 4 10 6 0 11
-4 11 -10z m1338 -17 c5 -10 13 -36 17 -58 3 -22 13 -48 22 -57 13 -15 12 -18
-12 -34 -23 -15 -28 -15 -36 -3 -5 8 -8 29 -5 47 3 17 1 32 -4 32 -4 0 -8 20
-7 45 2 47 10 57 25 28z m-1654 -54 c50 -39 22 -89 -52 -89 -15 0 -47 -10 -72
-21 -25 -11 -60 -22 -77 -23 -30 -3 -33 0 -33 23 0 32 19 62 27 44 11 -28 73
1 73 33 0 24 43 54 76 54 17 0 43 -9 58 -21z m1706 1 c8 -5 11 -12 7 -16 -4
-4 -15 0 -24 9 -18 18 -8 23 17 7z m20 -66 c0 -8 -4 -12 -10 -9 -5 3 -10 10
-10 16 0 5 5 9 10 9 6 0 10 -7 10 -16z m-1137 -3 c4 0 7 -5 7 -11 0 -13 -97
-13 -105 -1 -7 13 52 20 98 12z m44 -7 c-3 -3 -12 -4 -19 -1 -8 3 -5 6 6 6 11
1 17 -2 13 -5z m1123 -24 c0 -5 -4 -10 -10 -10 -5 0 -10 5 -10 10 0 6 5 10 10
10 6 0 10 -4 10 -10z m-39 -58 c-9 -25 -9 -24 -9 16 1 32 4 39 10 27 6 -9 6
-26 -1 -43z m43 12 c3 -8 2 -12 -4 -9 -6 3 -10 10 -10 16 0 14 7 11 14 -7z
m32 -10 c-3 -9 -6 -18 -6 -20 0 -2 -4 -4 -9 -4 -5 0 -7 9 -4 20 3 11 10 20 15
20 6 0 7 -7 4 -16z m14 -38 c0 -3 -4 -8 -10 -11 -5 -3 -10 -1 -10 4 0 6 5 11
10 11 6 0 10 -2 10 -4z m36 -80 c10 -8 16 -17 13 -20 -3 -4 -17 2 -30 13 -27
23 -13 28 17 7z m17 -61 c-22 -17 -30 -11 -13 10 7 8 17 12 22 9 5 -3 1 -12
-9 -19z m29 -122 c0 -15 5 -34 11 -41 5 -7 7 -15 3 -19 -11 -12 -20 7 -26 57
-4 32 -3 47 3 41 5 -5 9 -22 9 -38z m-1822 -45 c0 -4 12 -11 26 -14 32 -8 13
-24 -29 -24 -16 0 -26 -4 -22 -10 3 -5 -3 -10 -13 -10 -11 0 -22 -6 -25 -13
-5 -14 -34 -16 -54 -4 -6 4 -14 1 -16 -5 -4 -8 -6 -7 -6 4 -1 9 5 19 12 22 6
3 1 3 -13 -1 -22 -5 -39 -8 -72 -12 -5 -1 -17 -10 -28 -21 -16 -16 -20 -17
-20 -5 0 26 45 63 91 75 24 6 53 15 64 20 24 11 105 10 105 -2z m1867 -20 c-3
-7 -5 -2 -5 12 0 14 2 19 5 13 2 -7 2 -19 0 -25z m69 -115 c-11 -11 -17 4 -9
23 7 18 8 18 11 1 2 -10 1 -21 -2 -24z m-1495 -133 l17 -55 1 46 c1 57 14 69
73 69 42 0 48 -3 54 -24 3 -13 4 -38 2 -57 -3 -32 -5 -34 -62 -47 -43 -9 -61
-10 -66 -2 -5 8 -14 2 -26 -15 -16 -21 -30 -27 -78 -32 -53 -6 -60 -4 -76 17
-17 23 -18 23 -28 3 -16 -28 -90 -39 -130 -19 -17 9 -34 11 -42 6 -7 -4 -23
-5 -34 0 -12 4 -29 2 -39 -4 -15 -9 -21 -7 -33 8 -19 27 -19 106 0 106 8 0 18
-5 22 -11 3 -6 14 3 26 22 17 29 21 30 35 17 8 -9 18 -31 22 -49 l8 -34 12 41
c12 45 25 54 75 54 46 0 76 -25 77 -63 1 -32 1 -31 9 6 4 21 11 42 16 47 13
13 83 29 119 27 26 -2 31 -7 46 -57z m264 40 c3 -5 15 -10 26 -10 13 0 19 -7
19 -23 0 -19 -8 -26 -39 -35 -21 -7 -50 -12 -65 -12 -22 0 -26 4 -26 28 0 34
9 48 35 55 33 8 44 7 50 -3z m125 -14 c0 -8 -10 -22 -22 -31 -21 -14 -23 -14
-26 0 -2 9 5 23 15 30 23 18 33 18 33 1z m1193 -6 c3 -11 1 -20 -4 -20 -5 0
-9 9 -9 20 0 11 2 20 4 20 2 0 6 -9 9 -20z m-105 -24 c-10 -7 -18 -18 -18 -25
0 -6 -7 -11 -15 -11 -8 0 -15 2 -15 5 0 9 44 45 54 45 6 0 3 -7 -6 -14z m12
-56 c0 -16 -4 -30 -8 -30 -5 0 -7 14 -4 30 2 17 6 30 8 30 2 0 4 -13 4 -30z
m155 -60 c3 -5 2 -10 -4 -10 -5 0 -13 5 -16 10 -3 6 -2 10 4 10 5 0 13 -4 16
-10z m-18 -52 c-3 -8 -6 -5 -6 6 -1 11 2 17 5 13 3 -3 4 -12 1 -19z m70 -15
c-3 -10 -5 -4 -5 12 0 17 2 24 5 18 2 -7 2 -21 0 -30z m-2107 -23 c10 -19 10
-20 -9 -8 -11 6 -17 16 -15 20 8 12 12 10 24 -12z m85 2 c-3 -3 -11 0 -18 7
-9 10 -8 11 6 5 10 -3 15 -9 12 -12z m1875 -24 c0 -6 -6 -5 -15 2 -8 7 -15 14
-15 16 0 2 7 1 15 -2 8 -4 15 -11 15 -16z m-2048 2 c2 -6 31 -12 65 -14 35 -2
76 -10 93 -17 32 -15 48 -39 25 -39 -8 0 -12 -6 -9 -14 5 -12 -15 -27 -41 -31
-5 0 -9 -6 -7 -13 1 -7 -4 -12 -12 -12 -8 0 -21 -2 -28 -5 -24 -9 -104 75
-112 118 -5 29 -4 37 8 37 8 0 16 -5 18 -10z m2128 -20 c0 -5 -4 -10 -10 -10
-5 0 -10 5 -10 10 0 6 5 10 10 10 6 0 10 -4 10 -10z m-153 -167 c-3 -10 -5 -2
-5 17 0 19 2 27 5 18 2 -10 2 -26 0 -35z m153 43 c0 -3 -4 -8 -10 -11 -5 -3
-10 -1 -10 4 0 6 5 11 10 11 6 0 10 -2 10 -4z m-58 -148 c-6 -6 -15 -8 -19 -4
-4 4 -1 11 7 16 19 12 27 3 12 -12z m-2302 -408 c0 -5 -2 -10 -4 -10 -3 0 -8
5 -11 10 -3 6 -1 10 4 10 6 0 11 -4 11 -10z m1777 -42 c-3 -8 -6 -5 -6 6 -1
11 2 17 5 13 3 -3 4 -12 1 -19z m-330 -140 c-3 -7 -5 -2 -5 12 0 14 2 19 5 13
2 -7 2 -19 0 -25z m-1377 -12 c0 -3 -4 -8 -10 -11 -5 -3 -10 -1 -10 4 0 6 5
11 10 11 6 0 10 -2 10 -4z m19 -35 c7 -5 12 -13 10 -19 -3 -7 -14 -3 -29 8
-25 20 -10 29 19 11z m131 -170 c0 -6 -4 -13 -10 -16 -5 -3 -10 1 -10 9 0 9 5
16 10 16 6 0 10 -4 10 -9z m470 -196 c0 -8 -4 -15 -10 -15 -5 0 -10 7 -10 15
0 8 5 15 10 15 6 0 10 -7 10 -15z m-100 -14 c15 -29 13 -32 -15 -19 -26 11
-30 19 -18 31 11 12 22 8 33 -12z m60 -71 c0 -5 -4 -10 -10 -10 -5 0 -10 5
-10 10 0 6 5 10 10 10 6 0 10 -4 10 -10z"/>
<path d="M5182 12875 c0 -16 2 -22 5 -12 2 9 2 23 0 30 -3 6 -5 -1 -5 -18z"/>
<path d="M5996 12479 c-8 -42 0 -50 9 -9 4 17 5 34 2 36 -2 3 -7 -10 -11 -27z"/>
<path d="M5107 12420 c-3 -11 -1 -20 4 -20 5 0 9 9 9 20 0 11 -2 20 -4 20 -2
0 -6 -9 -9 -20z"/>
<path d="M5055 12310 c3 -5 8 -10 11 -10 2 0 4 5 4 10 0 6 -5 10 -11 10 -5 0
-7 -4 -4 -10z"/>
<path d="M5441 12313 c-2 -20 11 -43 20 -37 5 3 9 10 9 15 0 6 -4 8 -9 4 -5
-3 -12 3 -14 12 -3 10 -5 13 -6 6z"/>
<path d="M5072 12260 c0 -14 2 -19 5 -12 2 6 2 18 0 25 -3 6 -5 1 -5 -13z"/>
<path d="M5428 12123 c7 -3 16 -2 19 1 4 3 -2 6 -13 5 -11 0 -14 -3 -6 -6z"/>
<path d="M5100 12116 c0 -2 8 -10 18 -17 15 -13 16 -12 3 4 -13 16 -21 21 -21
13z"/>
<path d="M5030 12006 c0 -9 5 -16 10 -16 6 0 10 4 10 9 0 6 -4 13 -10 16 -5 3
-10 -1 -10 -9z"/>
<path d="M5076 12011 c-4 -5 -1 -20 4 -33 10 -22 10 -22 5 5 -6 31 1 34 27 10
10 -9 18 -11 18 -5 0 6 -9 16 -19 22 -24 12 -28 12 -35 1z"/>
<path d="M5395 12010 c3 -5 8 -10 11 -10 2 0 4 5 4 10 0 6 -5 10 -11 10 -5 0
-7 -4 -4 -10z"/>
<path d="M5181 11994 c0 -11 3 -14 6 -6 3 7 2 16 -1 19 -3 4 -6 -2 -5 -13z"/>
<path d="M5155 11910 c3 -5 8 -10 11 -10 2 0 4 5 4 10 0 6 -5 10 -11 10 -5 0
-7 -4 -4 -10z"/>
<path d="M5382 11890 c0 -14 2 -19 5 -12 2 6 2 18 0 25 -3 6 -5 1 -5 -13z"/>
<path d="M5180 11890 c0 -5 5 -10 11 -10 5 0 7 5 4 10 -3 6 -8 10 -11 10 -2 0
-4 -4 -4 -10z"/>
<path d="M5410 11881 c0 -6 5 -13 10 -16 6 -3 10 1 10 9 0 9 -4 16 -10 16 -5
0 -10 -4 -10 -9z"/>
<path d="M5400 11815 c0 -9 -9 -15 -22 -15 -20 0 -21 -1 -3 -20 18 -19 17 -20
-3 -20 -13 0 -22 -6 -22 -15 0 -8 6 -12 14 -9 8 3 17 0 22 -7 4 -8 3 -10 -4
-5 -6 4 -20 -2 -31 -13 -11 -11 -16 -23 -11 -26 4 -3 10 0 12 6 2 6 16 12 30
12 24 0 26 2 21 28 -3 18 -1 29 6 29 6 0 11 -5 11 -12 0 -6 8 -3 18 8 10 10
17 27 14 37 -2 10 1 17 9 17 11 0 11 2 -1 10 -23 15 -60 12 -60 -5z m40 -5 c0
-5 -2 -10 -4 -10 -3 0 -8 5 -11 10 -3 6 -1 10 4 10 6 0 11 -4 11 -10z"/>
<path d="M5136 11806 c5 -14 34 -31 34 -20 0 7 -27 34 -34 34 -3 0 -3 -6 0
-14z"/>
<path d="M5185 11790 c4 -12 2 -20 -5 -20 -6 0 -8 -5 -5 -10 4 -6 11 -8 16 -5
13 8 11 55 -2 55 -6 0 -8 -9 -4 -20z"/>
<path d="M5170 11727 c0 -4 5 -17 10 -28 12 -21 65 -28 57 -6 -2 6 -11 11 -20
9 -8 -1 -18 2 -22 8 -3 5 -1 10 4 10 6 0 11 4 11 8 0 4 -9 8 -20 8 -11 0 -20
-4 -20 -9z"/>
<path d="M5270 11730 c0 -15 50 -24 62 -12 8 8 5 9 -9 6 -12 -3 -24 -1 -27 5
-9 14 -26 14 -26 1z"/>
<path d="M5435 11698 c-7 -17 -17 -22 -35 -20 -20 3 -23 1 -12 -9 6 -7 12 -21
12 -31 0 -24 11 -23 33 3 11 12 17 32 15 50 -3 30 -3 30 -13 7z"/>
<path d="M5467 11713 c-4 -3 -7 -16 -7 -29 0 -39 -32 -84 -60 -84 -14 0 -20
-4 -14 -8 6 -4 13 -15 17 -24 8 -24 26 -23 20 0 -2 10 3 24 11 31 9 8 16 20
16 27 0 8 4 14 10 14 5 0 12 16 16 35 6 36 3 51 -9 38z"/>
<path d="M5163 11686 c7 -14 13 -23 15 -21 7 6 -9 45 -18 45 -4 0 -3 -11 3
-24z"/>
<path d="M5366 11651 c-4 -7 -5 -15 -2 -18 9 -9 19 4 14 18 -4 11 -6 11 -12 0z"/>
<path d="M5275 11610 c6 -10 2 -11 -19 -6 -15 4 -26 2 -26 -4 0 -13 47 -13 55
-1 3 5 0 13 -6 17 -8 5 -9 3 -4 -6z"/>
<path d="M5398 11446 c-7 -35 5 -79 14 -54 4 8 3 30 -1 49 l-7 34 -6 -29z"/>
<path d="M5490 11343 c0 -5 5 -15 10 -23 8 -12 10 -11 10 8 0 12 -4 22 -10 22
-5 0 -10 -3 -10 -7z"/>
<path d="M8070 10000 c0 -5 5 -10 11 -10 5 0 7 5 4 10 -3 6 -8 10 -11 10 -2 0
-4 -4 -4 -10z"/>
<path d="M3790 9660 c0 -5 5 -10 10 -10 6 0 10 5 10 10 0 6 -4 10 -10 10 -5 0
-10 -4 -10 -10z"/>
<path d="M8066 9660 c-11 -3 -15 -9 -10 -13 10 -6 42 9 34 16 -3 3 -14 1 -24
-3z"/>
<path d="M8072 9279 c-13 -118 -52 -374 -86 -560 -12 -70 -24 -176 -25 -235
-1 -60 -6 -137 -10 -170 -8 -69 -1 -113 13 -78 17 40 95 352 126 502 11 53 28
104 37 114 15 17 17 44 15 236 -2 225 -7 276 -23 266 -6 -3 -16 2 -23 11 -10
15 -14 1 -24 -86z m40 -14 l-6 -50 -7 45 c-7 48 -2 77 12 63 4 -4 5 -30 1 -58z
m-11 -118 c-13 -13 -14 5 -3 43 l7 25 3 -29 c2 -16 -1 -33 -7 -39z"/>
<path d="M8911 8974 c0 -11 3 -14 6 -6 3 7 2 16 -1 19 -3 4 -6 -2 -5 -13z"/>
<path d="M8901 8934 c0 -12 -12 -46 -25 -75 -14 -30 -27 -67 -30 -84 -4 -16
-3 -23 0 -15 4 8 20 46 36 83 16 38 27 78 25 90 -4 22 -4 22 -6 1z"/>
<path d="M9013 8633 c-8 -24 -72 -164 -83 -183 -7 -12 -77 -150 -98 -192 -2
-5 -1 -8 2 -8 10 0 173 325 187 373 8 29 2 38 -8 10z"/>
<path d="M8796 8205 c-9 -26 -7 -32 5 -12 6 10 9 21 6 23 -2 3 -7 -2 -11 -11z"/>
<path d="M8195 8135 c9 -107 13 -288 6 -253 -7 32 -39 96 -44 86 -7 -12 13
-512 22 -548 6 -25 16 -76 22 -115 6 -38 17 -97 25 -130 44 -188 53 -275 43
-435 -6 -95 -16 -172 -26 -199 -12 -33 -14 -67 -11 -142 5 -103 12 -120 56
-142 32 -15 65 -103 81 -215 7 -44 21 -111 31 -148 26 -91 25 -126 -6 -193
-34 -70 -41 -130 -22 -168 31 -59 53 -98 59 -103 15 -12 40 -80 34 -90 -5 -8
0 -8 16 1 23 12 22 10 -5 -27 -16 -21 -46 -59 -66 -84 -57 -71 -74 -101 -61
-109 11 -7 17 -43 42 -256 16 -135 18 -148 29 -220 6 -38 16 -73 23 -77 20
-13 53 0 121 47 35 25 67 45 71 45 5 0 23 11 41 25 18 14 37 25 43 25 6 0 11
5 11 11 0 12 38 49 50 49 11 0 27 -22 34 -48 8 -24 -14 -59 -71 -116 -24 -24
-30 -35 -22 -43 16 -16 87 32 95 63 4 13 14 24 23 24 26 1 58 34 66 68 5 25 3
32 -9 32 -9 0 -13 -6 -10 -14 12 -30 -14 -23 -54 16 -69 65 -86 112 -132 360
-17 96 -48 214 -79 305 -77 228 -102 362 -108 581 l-6 183 -28 30 c-16 17 -29
35 -29 40 0 5 -4 9 -9 9 -5 0 -9 -16 -9 -35 0 -28 -27 -77 -35 -64 -30 44 -55
264 -62 539 -4 199 -27 373 -60 475 -17 48 -25 103 -29 175 -5 114 -23 190
-37 154 -12 -30 -10 191 3 296 15 127 11 256 -13 350 -7 31 -8 29 -4 -15z"/>
<path d="M7001 8064 c0 -11 3 -14 6 -6 3 7 2 16 -1 19 -3 4 -6 -2 -5 -13z"/>
<path d="M8946 7895 c-9 -26 -7 -32 5 -12 6 10 9 21 6 23 -2 3 -7 -2 -11 -11z"/>
<path d="M8681 7874 c0 -11 3 -14 6 -6 3 7 2 16 -1 19 -3 4 -6 -2 -5 -13z"/>
<path d="M8907 7808 c-33 -75 -44 -113 -52 -182 -8 -69 -19 -103 -44 -131 -31
-35 -97 -174 -152 -320 -12 -33 -32 -80 -45 -105 -33 -67 -104 -261 -104 -283
0 -11 -12 -45 -26 -75 -35 -73 -54 -151 -54 -217 0 -63 16 -73 25 -17 15 88
37 161 68 222 35 71 82 130 102 130 7 0 16 7 19 16 3 8 10 13 14 10 9 -5 11
-1 77 254 24 91 55 206 70 255 32 108 48 172 70 285 9 47 28 112 41 144 30 75
23 87 -9 14z"/>
<path d="M8661 7823 c-14 -37 -80 -277 -76 -281 5 -5 35 86 65 198 29 104 33
136 11 83z"/>
<path d="M1300 7709 c0 -4 20 -52 45 -108 39 -87 45 -110 44 -165 -1 -44 5
-77 19 -110 23 -51 22 -53 -13 -30 -43 28 -27 2 37 -63 34 -35 57 -63 51 -63
-7 0 -15 5 -18 10 -4 6 -25 22 -46 36 -22 14 -54 39 -71 57 l-30 32 20 -35
c12 -19 85 -122 164 -228 123 -167 143 -190 146 -167 2 16 -16 68 -46 133 -28
59 -53 119 -56 134 -3 14 -24 57 -46 95 -65 109 -82 151 -91 227 -6 47 -20 94
-43 141 -33 67 -65 117 -66 104z"/>
<path d="M1180 7521 c0 -6 4 -13 10 -16 6 -3 7 1 4 9 -7 18 -14 21 -14 7z"/>
<path d="M8462 7323 c-19 -91 -73 -328 -77 -340 -2 -7 0 -13 4 -13 17 0 74
220 87 338 8 73 1 81 -14 15z"/>
<path d="M1274 7100 c34 -44 406 -406 406 -396 0 17 -29 102 -29 89 -2 -24
-19 -12 -122 85 -145 136 -278 251 -255 222z"/>
<path d="M8645 6795 c-4 -25 -5 -48 -2 -51 2 -3 8 16 12 41 3 26 4 49 2 52 -3
3 -9 -16 -12 -42z"/>
<path d="M8632 6710 c0 -14 2 -19 5 -12 2 6 2 18 0 25 -3 6 -5 1 -5 -13z"/>
<path d="M1393 6533 c-5 -12 2 -23 22 -37 15 -12 104 -96 197 -188 92 -92 168
-162 168 -155 0 48 -26 84 -147 200 -139 135 -210 197 -224 197 -5 0 -13 -8
-16 -17z"/>
<path d="M8897 6457 c-9 -15 -17 -31 -17 -36 0 -6 -8 -15 -17 -21 -13 -8 -14
-13 -5 -16 16 -7 16 -24 -1 -24 -17 0 -31 -24 -71 -129 -19 -49 -49 -123 -67
-163 -49 -115 -56 -132 -62 -150 -7 -21 17 -71 28 -60 4 4 5 -4 1 -18 -3 -14
-9 -43 -12 -65 -9 -57 9 -32 26 35 7 30 42 132 77 225 36 94 71 193 78 220 7
28 25 85 39 128 29 85 30 115 3 74z"/>
<path d="M8741 6434 c-6 -15 -9 -29 -7 -32 3 -2 10 8 16 23 6 15 9 29 7 31 -2
2 -9 -8 -16 -22z"/>
<path d="M6255 6388 c-126 -4 -254 -11 -284 -14 l-53 -6 6 -41 c3 -23 10 -73
16 -112 17 -122 6 -111 117 -107 206 7 410 21 472 33 l64 12 -7 96 c-10 149
-11 151 -60 149 -22 0 -144 -5 -271 -10z m285 -118 c0 -82 -3 -100 -15 -100
-12 0 -15 17 -15 93 0 52 3 97 7 100 18 19 23 -1 23 -93z m-156 84 c28 -11 18
-34 -13 -34 -36 0 -48 15 -24 29 22 13 18 12 37 5z m76 -34 c0 -29 4 -40 15
-40 17 0 20 -27 4 -32 -6 -2 -14 -21 -18 -43 -12 -72 -28 -51 -36 44 -7 93 -4
111 21 111 10 0 14 -12 14 -40z m-256 -50 c-5 -47 -3 -74 5 -83 9 -11 8 -17
-2 -26 -8 -6 -17 -8 -20 -4 -9 8 -9 178 -1 186 17 17 23 -10 18 -73z m56 -20
c0 -60 -4 -100 -10 -100 -6 0 -10 40 -10 100 0 60 4 100 10 100 6 0 10 -40 10
-100z m-210 75 c0 -9 -9 -15 -25 -15 -26 0 -34 15 -12 23 23 10 37 7 37 -8z
m57 -83 c1 -51 -2 -92 -6 -92 -14 0 -21 40 -21 118 0 55 3 73 13 70 8 -3 13
-33 14 -96z m226 29 c9 -10 7 -16 -7 -27 -26 -19 -36 -9 -36 35 0 47 23 76 28
34 2 -15 9 -34 15 -42z m-339 2 c5 -35 3 -43 -9 -43 -11 0 -15 11 -15 38 0 21
3 42 7 45 9 9 9 8 17 -40z m404 -35 c4 -31 -15 -71 -29 -63 -5 4 -9 26 -9 51
0 38 3 45 18 42 10 -2 18 -14 20 -30z m-343 1 c9 -26 -2 -72 -15 -64 -13 8
-13 85 -1 85 5 0 13 -9 16 -21z m288 -63 c7 -19 -1 -26 -30 -26 -16 0 -23 6
-23 20 0 14 7 20 24 20 13 0 26 -6 29 -14z m-339 -2 c23 -9 20 -24 -4 -24 -11
0 -20 7 -20 15 0 17 2 18 24 9z m156 -9 c0 -8 -7 -15 -15 -15 -8 0 -15 7 -15
15 0 8 7 15 15 15 8 0 15 -7 15 -15z"/>
<path d="M8712 6378 c-19 -24 -61 -128 -102 -253 -30 -94 -41 -143 -42 -195 0
-39 2 -73 5 -77 4 -3 7 4 7 16 0 49 94 392 131 478 19 44 19 52 1 31z"/>
<path d="M9760 6350 c-6 -11 -8 -20 -6 -20 3 0 10 9 16 20 6 11 8 20 6 20 -3
0 -10 -9 -16 -20z"/>
<path d="M9660 6210 c-6 -11 -8 -20 -6 -20 3 0 10 9 16 20 6 11 8 20 6 20 -3
0 -10 -9 -16 -20z"/>
<path d="M1831 5904 c0 -11 3 -14 6 -6 3 7 2 16 -1 19 -3 4 -6 -2 -5 -13z"/>
<path d="M9215 5634 c-9 -15 -12 -23 -6 -20 11 7 35 46 28 46 -3 0 -12 -12
-22 -26z"/>
<path d="M1833 5471 c0 -11 5 -17 9 -15 11 7 10 34 -1 34 -6 0 -9 -9 -8 -19z"/>
<path d="M2016 5372 c-3 -6 -3 -18 1 -28 4 -10 2 -15 -3 -11 -11 6 -11 -33 -1
-50 3 -5 2 -25 -3 -43 -6 -21 -6 -39 0 -51 6 -10 10 -31 10 -47 0 -16 7 -35
16 -43 8 -7 13 -21 11 -31 -3 -11 0 -18 9 -18 8 0 14 -5 14 -11 0 -6 10 -19
22 -28 28 -23 16 -41 -28 -41 -76 0 -54 -69 67 -215 105 -127 186 -243 189
-271 4 -33 0 -42 -16 -40 -12 1 -16 -11 -17 -52 -2 -30 1 -56 5 -58 5 -3 8
-18 8 -34 0 -22 -14 -44 -55 -87 -30 -32 -55 -61 -55 -64 0 -4 20 -34 44 -66
24 -33 49 -69 55 -81 11 -21 16 -132 6 -132 -4 0 -20 7 -38 15 -24 12 -12 -3
45 -57 65 -62 76 -77 71 -97 -6 -22 -9 -23 -67 -17 -70 7 -65 0 24 -38 36 -16
93 -44 127 -64 l62 -36 -6 -75 c-12 -143 -16 -130 57 -161 35 -16 66 -33 68
-38 2 -6 -4 -22 -14 -36 -13 -21 -14 -29 -4 -41 7 -8 18 -15 24 -15 16 0 132
-80 188 -129 48 -43 98 -128 98 -168 0 -28 57 -93 118 -135 66 -46 110 -122
127 -221 4 -27 26 -60 83 -125 101 -114 174 -187 203 -203 l24 -12 -26 34
c-40 52 -109 217 -113 271 -1 3 -4 10 -8 14 -5 4 -8 15 -8 25 0 15 5 16 31 9
35 -10 47 -18 113 -74 26 -21 49 -37 51 -34 3 2 -6 19 -19 38 -17 25 -20 37
-12 46 8 9 19 6 44 -12 70 -54 23 -1 -166 186 -216 213 -230 230 -406 495
-145 218 -246 391 -290 499 -41 99 -92 265 -101 326 -3 25 -8 57 -11 72 -5 24
-3 27 13 22 28 -11 73 -55 96 -98 12 -21 27 -48 34 -60 16 -27 132 -136 147
-137 6 -1 18 -1 28 0 9 1 33 -5 53 -13 l36 -16 -37 53 c-21 28 -71 97 -111
152 -98 134 -174 250 -216 327 -71 132 -127 227 -203 350 -43 70 -98 160 -121
200 -53 93 -223 433 -223 445 0 16 -37 45 -44 35z"/>
<path d="M8992 5037 c-12 -32 -22 -70 -21 -85 1 -18 9 -3 25 47 30 90 26 119
-4 38z"/>
<path d="M9126 4908 c-44 -40 -78 -80 -93 -113 -13 -27 -39 -72 -58 -100 -19
-27 -35 -54 -34 -60 0 -5 6 -2 12 9 7 10 31 41 54 68 22 27 44 65 47 83 5 26
23 49 71 91 52 46 85 84 72 84 -1 0 -33 -28 -71 -62z"/>
<path d="M8851 4844 c0 -11 3 -14 6 -6 3 7 2 16 -1 19 -3 4 -6 -2 -5 -13z"/>
<path d="M10015 4789 c-44 -5 -147 -11 -230 -15 -82 -3 -154 -10 -159 -14 -18
-18 93 -23 204 -9 160 19 404 18 504 -4 79 -17 239 -69 309 -101 64 -28 31 2
-41 38 -103 52 -247 94 -362 105 -56 6 -112 10 -124 9 -11 -1 -57 -5 -101 -9z"/>
<path d="M8691 4546 c-16 -19 -11 -29 8 -17 7 5 12 14 9 21 -3 9 -8 7 -17 -4z"/>
<path d="M8737 4257 c-12 -13 -32 -36 -45 -51 -13 -16 -29 -25 -38 -22 -8 3
-14 1 -14 -4 0 -13 -42 -40 -69 -45 -23 -4 -80 -45 -80 -58 -1 -4 -10 -17 -21
-29 -11 -12 -20 -28 -20 -35 0 -7 -4 -13 -10 -13 -5 0 -10 -8 -10 -18 0 -11
-9 -30 -20 -43 -49 -59 -65 -90 -51 -98 7 -5 -11 -34 -46 -77 -89 -110 -85
-107 49 31 69 72 162 159 207 195 44 36 81 72 81 80 0 20 55 136 69 144 14 9
54 66 46 66 -3 0 -16 -10 -28 -23z"/>
<path d="M1012 3744 c-12 -8 -29 -28 -37 -45 -19 -35 -129 -94 -207 -110 -96
-19 -184 -49 -218 -71 -71 -48 -163 -208 -119 -208 5 0 8 -4 4 -9 -3 -6 4 -15
15 -21 13 -7 20 -7 20 0 0 5 9 10 20 10 16 0 20 7 21 33 1 49 23 102 45 105
10 2 60 16 109 32 50 15 124 36 165 45 41 9 83 21 92 26 10 5 29 9 42 9 29 0
43 17 27 33 -6 6 -11 25 -11 43 0 26 9 40 41 67 35 31 39 38 29 56 -13 25 -10
25 -38 5z"/>
<path d="M8205 3639 c-4 -6 -5 -12 -2 -15 2 -3 7 2 10 11 7 17 1 20 -8 4z"/>
<path d="M430 3593 c0 -12 7 -26 16 -31 15 -8 15 -12 -2 -38 -17 -25 -11 -23
53 21 46 32 68 53 62 60 -5 5 -37 10 -69 10 -55 0 -60 -1 -60 -22z"/>
<path d="M397 3493 c-4 -3 -7 -13 -7 -21 0 -12 3 -12 15 -2 8 7 15 16 15 21 0
11 -14 12 -23 2z"/>
<path d="M8007 3383 c-20 -27 -52 -64 -72 -83 -20 -19 -45 -52 -56 -72 -27
-52 -17 -48 15 6 14 24 40 56 57 71 37 31 109 125 95 125 -2 0 -20 -21 -39
-47z"/>
<path d="M8271 3329 c-83 -16 -195 -77 -257 -140 -32 -32 -55 -59 -51 -59 4 0
38 28 76 63 101 91 172 119 326 126 101 4 112 6 70 12 -65 9 -110 9 -164 -2z"/>
<path d="M8570 3300 c8 -5 24 -10 35 -10 17 0 17 2 5 10 -8 5 -24 10 -35 10
-17 0 -17 -2 -5 -10z"/>
<path d="M520 3273 c0 -4 4 -14 9 -22 11 -17 45 -7 39 12 -5 13 -48 23 -48 10z"/>
<path d="M410 3240 c0 -10 6 -23 13 -27 8 -4 16 -16 20 -25 7 -21 47 -24 65
-6 7 7 12 22 12 34 0 19 -8 24 -50 33 -64 14 -60 14 -60 -9z"/>
<path d="M7836 3155 c-3 -9 -6 -22 -5 -28 0 -7 5 -1 10 12 5 13 8 26 5 28 -2
2 -6 -3 -10 -12z"/>
<path d="M10820 3117 c-202 -135 -448 -251 -675 -318 -155 -46 -165 -50 -165
-61 0 -17 111 -2 198 27 97 33 247 102 371 172 195 111 366 223 340 223 -2 0
-33 -20 -69 -43z"/>
<path d="M667 3133 c-4 -3 -7 -17 -7 -29 0 -13 -4 -26 -10 -29 -14 -9 -12 -25
3 -25 16 0 50 67 42 81 -7 11 -19 12 -28 2z"/>
<path d="M1081 3055 c-46 -30 -97 -66 -115 -80 -18 -14 -37 -25 -41 -25 -4 0
-22 -10 -39 -23 -59 -44 -60 -44 -52 1 3 23 4 42 2 42 -2 0 -24 -8 -48 -19
-45 -19 -108 -81 -108 -106 0 -8 -9 -19 -20 -25 -11 -6 -20 -21 -20 -35 0 -18
7 -25 30 -30 16 -4 35 -3 42 1 72 43 207 136 222 153 11 11 24 21 31 21 6 0
21 14 34 30 12 17 38 41 59 55 42 27 120 94 111 95 -3 0 -43 -25 -88 -55z"/>
<path d="M7812 3090 c-8 -13 -8 -20 -2 -20 6 0 13 7 17 15 9 24 -1 27 -15 5z"/>
<path d="M2910 2872 c0 -10 -5 -23 -12 -30 -17 -17 8 -42 43 -42 40 0 42 12
11 53 -30 40 -42 46 -42 19z"/>
<path d="M3860 2766 c38 -21 70 -28 70 -18 0 11 -54 32 -79 32 -10 -1 -7 -5 9
-14z"/>
<path d="M4030 2709 c25 -10 52 -23 60 -29 43 -27 184 -100 194 -100 7 0 33
-13 58 -29 25 -16 72 -36 104 -46 32 -9 66 -22 74 -29 17 -14 98 -54 146 -71
17 -6 49 -26 71 -44 34 -27 53 -34 109 -39 38 -4 91 -3 118 2 39 7 64 5 130
-13 186 -50 178 -46 339 -168 30 -24 58 -47 62 -53 7 -12 -32 -15 -214 -15
-184 0 -185 -12 -1 -60 71 -18 167 -19 218 -1 32 12 93 14 299 11 364 -6 428
-12 459 -46 17 -18 16 -20 -5 -43 -40 -43 -73 -50 -169 -39 -111 14 -264 1
-329 -26 -38 -17 -263 -89 -438 -142 -16 -5 -77 -9 -135 -9 -58 0 -132 -5
-165 -11 -33 -6 -80 -14 -105 -19 -25 -4 -57 -12 -73 -18 -15 -7 -87 -19 -160
-28 -128 -15 -135 -15 -227 5 -52 12 -129 30 -170 41 -88 24 -121 21 -265 -20
-55 -16 -197 -52 -315 -80 -118 -27 -244 -59 -280 -70 -36 -11 -105 -29 -155
-41 -87 -21 -177 -58 -190 -79 -3 -5 -42 -37 -86 -71 -145 -110 -259 -228
-319 -329 -30 -51 -59 -94 -65 -96 -5 -2 -29 -8 -51 -14 -35 -8 -43 -15 -48
-40 -6 -33 10 -70 31 -70 15 0 18 -26 4 -34 -5 -3 -14 0 -20 8 -15 18 -81 17
-81 -1 0 -13 5 -18 65 -69 27 -23 28 -25 7 -21 -24 6 -62 -33 -62 -62 1 -20
36 -61 77 -90 18 -12 43 -45 57 -75 14 -30 32 -56 40 -59 8 -3 16 -18 18 -34
2 -21 22 -43 83 -91 95 -76 103 -92 47 -92 -32 0 -41 -4 -45 -21 -4 -15 0 -23
13 -26 11 -3 26 -16 35 -29 8 -13 31 -30 50 -38 20 -9 38 -22 41 -31 6 -13
193 -15 1811 -15 1708 0 1807 1 1819 18 13 16 14 16 8 -1 -6 -16 56 -17 1217
-16 673 1 1181 5 1129 9 -52 5 -180 13 -285 20 -104 7 -198 14 -209 16 -10 2
-170 4 -355 5 -185 0 -372 5 -416 11 -44 5 -123 11 -175 13 -52 2 -97 4 -100
5 -6 3 -60 6 -225 15 -187 10 -188 20 -5 47 111 15 665 12 1200 -7 483 -18
831 -9 990 25 52 11 109 23 125 27 17 3 39 10 50 16 18 10 18 10 -5 19 -55 21
-430 98 -570 118 -41 6 -151 12 -245 15 -336 9 -501 16 -549 21 -35 5 -51 2
-57 -7 -7 -11 -65 -14 -301 -14 -294 1 -353 5 -345 28 7 21 183 26 1047 31
566 2 862 8 920 16 47 6 101 14 120 17 l35 5 -33 29 c-18 16 -43 29 -55 29
-13 0 -27 4 -33 10 -5 5 -39 16 -74 24 -36 8 -83 20 -105 26 -22 6 -56 15 -76
20 -35 9 -146 17 -259 20 l-55 1 28 20 c15 11 27 24 27 28 0 5 -28 16 -62 25
-35 10 -76 28 -93 42 l-30 24 100 0 c55 -1 161 -5 235 -10 74 -5 248 -10 385
-10 229 0 321 -8 399 -31 39 -12 47 -1 16 20 -48 32 -62 51 -49 67 6 8 24 14
40 14 41 0 147 -54 210 -107 30 -24 86 -67 124 -94 39 -27 117 -85 174 -129
84 -63 115 -82 158 -90 42 -9 57 -9 69 1 11 9 18 8 33 -5 19 -17 19 -16 14 26
-7 59 8 41 42 -49 14 -40 31 -73 36 -73 26 0 -6 127 -40 161 -9 8 -65 38 -126
65 -198 89 -585 288 -855 438 -146 82 -358 195 -472 251 -190 94 -209 101
-227 88 -12 -8 -21 -18 -21 -22 0 -12 246 -143 304 -163 28 -9 47 -17 41 -17
-5 -1 -35 -5 -65 -10 -30 -5 -129 -12 -220 -16 -91 -4 -214 -10 -273 -14
l-108 -8 -42 -41 c-49 -48 -120 -85 -203 -107 -85 -22 -122 -35 -182 -61 -66
-30 -132 -32 -157 -4 -16 18 -17 20 -1 20 13 0 15 6 10 28 -15 67 -128 265
-216 379 -29 38 -51 56 -77 63 -20 5 -45 16 -56 23 -11 8 -29 16 -41 19 -16 4
-8 -14 41 -86 61 -91 113 -193 141 -274 14 -40 14 -46 -3 -70 -10 -15 -23 -40
-30 -55 -12 -26 -11 -28 7 -22 33 11 22 -3 -20 -25 -47 -24 -68 -27 -51 -6 9
11 9 15 -1 19 -9 4 -4 14 15 31 l28 26 -36 0 c-27 0 -44 8 -66 29 -16 16 -29
34 -29 40 0 14 3 14 34 0 20 -9 29 -9 41 1 13 11 12 14 -7 29 -14 12 -21 31
-23 59 -3 47 -15 65 -65 97 -61 39 -138 125 -187 209 -26 44 -51 83 -55 84 -5
2 -15 18 -22 35 -7 18 -24 43 -37 57 -13 14 -39 44 -57 65 l-34 40 17 -35 c10
-19 26 -44 36 -55 10 -11 21 -40 25 -64 7 -42 6 -43 -15 -31 -13 6 -25 9 -28
7 -2 -3 13 -35 35 -70 21 -36 52 -92 68 -124 19 -37 60 -88 116 -144 83 -83
86 -88 93 -143 4 -30 5 -61 2 -68 -3 -7 -27 -22 -53 -32 -27 -11 -52 -24 -56
-29 -3 -6 -24 -20 -46 -31 -174 -90 -182 -96 -366 -246 -26 -22 -52 -40 -56
-40 -5 0 -7 20 -5 45 1 25 -2 48 -7 51 -5 3 -7 17 -4 30 4 13 2 24 -3 24 -5 0
-12 15 -16 33 -12 55 -53 163 -109 285 -77 168 -113 300 -87 316 5 3 23 -1 40
-10 18 -9 35 -14 38 -11 13 14 -78 173 -150 262 -84 103 -123 137 -184 165
-34 16 -86 45 -115 64 -29 20 -56 36 -60 36 -10 0 -96 -59 -103 -71 -9 -13
-25 -11 -25 4 0 20 68 95 101 112 34 18 91 19 134 4 30 -11 37 -8 153 70 96
65 122 87 121 104 0 12 6 59 13 105 20 111 4 107 -50 -13 l-17 -40 -170 1
c-111 1 -228 9 -335 23 -247 33 -326 41 -421 41 -62 0 -90 4 -98 14 -27 32
-274 188 -327 206 -32 11 -65 26 -73 34 -28 23 -192 71 -200 57 -9 -14 -101 5
-221 45 -92 30 -463 132 -545 149 -53 11 -99 23 -225 55 -55 15 -59 10 -10
-11z m1575 -593 c15 -35 6 -57 -12 -33 -9 12 -33 86 -33 103 0 13 29 -32 45
-70z m105 11 c0 -7 -16 -28 -35 -47 -19 -19 -35 -31 -35 -28 0 17 31 77 42 81
22 9 28 8 28 -6z m133 -401 c64 -41 76 -58 56 -82 -10 -13 -10 -17 2 -25 8 -4
23 -6 34 -3 16 5 14 0 -11 -27 -40 -43 -55 -72 -69 -134 -11 -48 -12 -49 -60
-61 -45 -12 -166 -6 -225 11 -27 8 -183 25 -315 34 -118 9 -139 13 -225 49
-52 22 -142 55 -200 73 -102 33 -104 34 -60 37 25 1 81 9 125 17 44 8 127 22
185 30 58 8 130 21 160 30 57 16 316 79 360 88 14 3 61 4 105 3 73 -3 86 -7
138 -40z m82 -275 c3 -11 20 -37 36 -58 33 -41 53 -73 45 -73 -5 0 -84 109
-100 138 -4 6 -3 12 3 12 5 0 12 -9 16 -19z m675 -90 c0 -14 -51 -50 -163
-115 -54 -32 -103 -56 -110 -53 -6 2 43 36 109 75 67 40 127 79 134 87 14 17
30 20 30 6z m69 -42 c-25 -16 -32 -9 -13 12 12 13 20 16 22 9 3 -7 -2 -16 -9
-21z m-619 -49 c12 -16 19 -30 16 -30 -2 0 -14 14 -26 30 -12 17 -19 30 -16
30 2 0 14 -13 26 -30z m105 -128 c-8 -9 -38 15 -51 42 l-16 31 35 -35 c19 -19
34 -36 32 -38z m1479 -87 c5 -21 4 -27 -3 -20 -6 6 -13 26 -16 45 -7 42 8 21
19 -25z m-3972 -374 c12 -20 28 -40 34 -46 18 -15 104 -145 104 -157 0 -11
-41 39 -85 104 -26 39 -45 55 -45 39 0 -6 -7 -11 -15 -11 -8 0 -15 -6 -15 -12
-1 -16 -70 61 -70 77 0 7 9 24 21 39 24 31 35 26 71 -33z m58 -158 c0 -25 -19
-22 -44 8 -14 17 -26 34 -26 39 0 14 69 -33 70 -47z m89 -94 c-13 -10 -27 -19
-30 -19 -11 0 -19 30 -9 31 6 1 14 2 19 3 5 0 13 4 17 8 4 4 11 5 17 1 5 -3
-1 -14 -14 -24z m2612 -242 c-10 -9 -11 -8 -5 6 3 10 9 15 12 12 3 -3 0 -11
-7 -18z m118 -73 c-12 -43 -29 -68 -29 -42 0 19 30 92 35 86 3 -2 0 -22 -6
-44z"/>
<path d="M10429 2637 c-77 -68 -275 -237 -295 -251 -31 -22 -202 -190 -182
-180 9 5 53 42 98 83 44 40 102 90 128 110 39 31 236 205 292 257 31 29 -7 12
-41 -19z"/>
<path d="M9740 2642 c-48 -20 -222 -68 -294 -81 -77 -14 -86 -25 -16 -18 61 6
166 34 275 75 76 28 80 30 74 36 -2 2 -20 -3 -39 -12z"/>
<path d="M772 2580 c-12 -5 -27 -20 -33 -33 -7 -16 -17 -23 -29 -20 -10 3 -21
0 -24 -5 -9 -14 11 -64 33 -82 10 -8 23 -33 29 -56 8 -27 20 -44 37 -52 l26
-12 -7 50 c-9 66 1 113 32 150 45 53 8 88 -64 60z"/>
<path d="M4886 2532 c-4 -3 8 -12 25 -19 37 -15 52 -17 45 -4 -8 12 -63 31
-70 23z"/>
<path d="M3540 2446 c0 -2 8 -10 18 -17 15 -13 16 -12 3 4 -13 16 -21 21 -21
13z"/>
<path d="M960 2346 c-5 -14 -14 -26 -19 -26 -13 0 -21 -54 -9 -61 13 -8 48 1
48 12 0 4 15 11 34 15 19 3 43 15 53 26 17 19 17 20 0 33 -9 7 -28 10 -42 7
-14 -2 -32 1 -40 8 -12 10 -16 8 -25 -14z"/>
<path d="M7640 2351 c0 -5 15 -13 33 -17 73 -16 275 -99 356 -147 48 -28 115
-80 152 -116 58 -58 69 -76 93 -146 55 -163 73 -200 94 -203 18 -3 20 1 17 30
-2 18 -6 58 -9 89 -7 92 -64 198 -155 289 -71 71 -83 79 -181 117 -134 53
-217 79 -305 98 -82 17 -95 18 -95 6z"/>
<path d="M9990 2297 c-50 -26 -82 -51 -71 -55 6 -2 9 -9 5 -15 -3 -7 1 -4 9 6
8 9 18 17 23 17 13 0 81 59 69 60 -5 0 -21 -6 -35 -13z"/>
<path d="M9795 2192 c-58 -32 -218 -99 -321 -135 -155 -54 -370 -87 -566 -87
-66 0 -118 -4 -118 -9 0 -35 311 -40 425 -7 161 47 415 133 454 154 26 13 55
22 69 19 18 -3 26 1 32 19 5 13 13 24 18 24 4 0 23 11 42 25 45 33 27 32 -35
-3z"/>
<path d="M3500 2185 c0 -5 5 -17 10 -25 5 -8 10 -10 10 -5 0 6 -5 17 -10 25
-5 8 -10 11 -10 5z"/>
<path d="M9845 2114 c-38 -36 -61 -61 -50 -55 19 9 135 121 125 121 -3 0 -36
-30 -75 -66z"/>
<path d="M1078 2033 c-71 -2 -128 -8 -128 -12 0 -9 68 -67 127 -108 36 -26 68
-29 80 -9 14 23 45 34 118 41 39 4 86 11 105 17 19 6 62 13 95 17 65 7 73 20
22 37 -38 13 -244 21 -419 17z"/>
<path d="M9699 1865 c29 -8 73 -29 98 -45 52 -35 63 -38 37 -9 -29 32 -88 59
-141 64 l-48 5 54 -15z"/>
<path d="M10008 1743 c6 -2 18 -2 25 0 6 3 1 5 -13 5 -14 0 -19 -2 -12 -5z"/>
<path d="M9339 1653 l-24 -28 28 24 c15 14 27 26 27 28 0 8 -8 1 -31 -24z"/>
<path d="M1896 1632 c-52 -12 -71 -13 -74 -4 -6 18 -65 14 -192 -12 -63 -13
-141 -27 -173 -31 -60 -8 -71 -14 -61 -37 7 -17 100 -90 142 -112 17 -9 32
-21 32 -27 0 -5 16 -19 36 -31 34 -20 36 -24 30 -60 -7 -42 -5 -44 24 -26 27
17 34 5 20 -39 -22 -70 -41 -99 -75 -118 -19 -10 -35 -24 -35 -32 0 -7 -4 -13
-8 -13 -24 0 -122 -113 -122 -141 0 -7 -13 -34 -30 -61 -36 -58 -36 -58 -9
-58 23 0 168 48 184 60 6 5 29 15 52 23 35 12 45 12 53 2 7 -8 7 -16 2 -19
-10 -6 -117 -34 -165 -43 -15 -3 -30 -9 -33 -14 -10 -17 26 -22 79 -11 40 8
55 8 65 -2 11 -11 6 -19 -30 -46 -24 -19 -110 -101 -193 -185 -82 -83 -177
-171 -209 -195 -33 -25 -101 -76 -152 -115 -51 -38 -156 -118 -235 -177 -78
-60 -135 -108 -126 -108 19 0 123 72 237 165 41 33 118 92 170 131 153 114
219 172 342 299 64 66 137 136 162 155 25 19 48 44 51 55 9 31 81 57 137 49
55 -8 99 4 58 16 -16 4 -24 12 -22 23 2 10 -4 17 -13 17 -8 0 -15 -7 -15 -15
0 -8 -5 -15 -11 -15 -6 0 -9 7 -5 15 3 8 2 15 -2 15 -4 0 -12 14 -17 32 -6 17
-16 33 -22 36 -10 3 -9 -5 1 -30 20 -47 4 -74 -23 -39 -27 36 -36 145 -16 194
9 21 13 42 10 47 -4 6 -2 10 4 10 6 0 13 17 16 38 4 20 13 55 21 77 19 56 18
102 -3 114 -15 9 -16 12 -3 20 8 5 18 7 22 5 4 -3 8 2 8 10 0 9 -4 16 -9 16
-15 0 -22 30 -11 50 6 11 31 28 56 39 25 12 58 31 74 43 15 13 42 31 59 40 17
9 31 22 31 28 0 12 3 12 -84 -8z m-186 -301 c0 -12 -20 -25 -27 -18 -7 7 6 27
18 27 5 0 9 -4 9 -9z m12 -113 c-7 -7 -12 -8 -12 -2 0 14 12 26 19 19 2 -3 -1
-11 -7 -17z"/>
<path d="M8632 1488 c2 -6 15 -15 28 -20 23 -9 23 -8 5 12 -20 22 -39 27 -33
8z"/>
<path d="M1820 1358 c0 -26 -5 -59 -11 -75 -6 -15 -16 -55 -24 -88 -7 -33 -21
-89 -31 -125 l-17 -66 27 -27 c19 -19 34 -26 47 -22 11 4 19 2 19 -4 0 -13 52
-15 65 -2 16 14 258 -5 294 -24 l32 -16 -7 26 c-3 14 -2 25 3 25 24 0 133 -43
176 -70 56 -34 60 -35 77 -15 10 13 9 15 -9 15 -13 0 -30 14 -46 40 -25 40
-25 40 -90 40 -35 0 -66 4 -70 9 -3 5 10 22 30 37 37 28 50 63 17 45 -10 -6
-28 -8 -38 -5 -12 3 -27 -3 -38 -15 -34 -38 -86 -22 -86 26 0 13 -5 32 -12 42
-9 15 -9 23 2 36 8 10 19 32 25 49 11 31 10 32 -12 28 -13 -2 -23 1 -23 7 0
22 -16 11 -27 -19 -14 -37 -34 -38 -79 -4 -38 30 -43 49 -14 57 11 3 23 13 27
24 3 10 19 33 35 51 54 63 32 60 -52 -7 -14 -12 -35 -21 -47 -21 -13 0 -23 -4
-23 -10 0 -20 -29 -9 -52 20 -13 17 -33 43 -45 58 l-22 27 -1 -47z m268 -226
c4 -25 -13 -30 -22 -6 -9 25 -7 36 7 32 6 -3 13 -14 15 -26z"/>
<path d="M7940 1316 c0 -2 15 -9 33 -15 29 -10 30 -9 13 4 -18 14 -46 20 -46
11z"/>
<path d="M8988 1313 c6 -2 18 -2 25 0 6 3 1 5 -13 5 -14 0 -19 -2 -12 -5z"/>
<path d="M8060 1250 c20 -13 33 -13 25 0 -3 6 -14 10 -23 10 -15 0 -15 -2 -2
-10z"/>
<path d="M10075 1188 c-71 -5 -162 -7 -202 -6 -39 2 -70 1 -67 -1 11 -12 150
-30 229 -31 103 0 375 30 375 42 0 10 -162 8 -335 -4z"/>
<path d="M2255 898 c6 -16 75 -58 94 -58 19 0 12 29 -12 45 -13 8 -38 18 -55
21 -26 5 -31 4 -27 -8z"/>
<path d="M1534 799 c12 -8 25 -8 40 -1 18 9 16 11 -19 11 -33 0 -37 -1 -21
-10z"/>
<path d="M1260 785 c-16 -9 -19 -14 -9 -15 8 0 24 7 35 15 24 18 7 19 -26 0z"/>
<path d="M1475 790 c3 -5 8 -10 11 -10 2 0 4 5 4 10 0 6 -5 10 -11 10 -5 0 -7
-4 -4 -10z"/>
<path d="M1345 690 c-124 -37 -235 -84 -235 -99 0 -5 46 9 103 31 56 22 118
43 137 47 35 8 80 28 80 36 0 8 -21 4 -85 -15z"/>
<path d="M9624 485 c24 -19 192 -85 214 -85 10 0 23 -5 29 -11 13 -13 29 -22
104 -63 89 -48 288 -205 373 -295 29 -31 31 -31 128 -31 54 0 98 4 98 8 0 14
-168 162 -184 162 -8 0 -30 13 -48 28 -30 26 -126 92 -170 117 -9 6 -41 27
-70 48 -30 20 -69 39 -87 42 -18 2 -38 8 -45 14 -7 6 -61 27 -120 46 -80 26
-124 35 -174 35 -60 -1 -65 -2 -48 -15z"/>
<path d="M1880 325 c0 -10 186 -94 224 -101 53 -9 39 12 -17 27 -23 6 -77 26
-120 45 -81 35 -87 37 -87 29z"/>
<path d="M10552 185 c9 -10 21 -16 28 -13 7 2 -1 10 -16 17 -27 12 -28 11 -12
-4z"/>
<path d="M9860 142 c0 -6 9 -12 20 -15 11 -3 20 -3 20 -1 0 2 -9 8 -20 14 -11
6 -20 7 -20 2z"/>
<path d="M2390 86 c0 -2 29 -23 64 -46 41 -26 73 -40 88 -38 19 3 10 10 -42
37 -68 35 -110 53 -110 47z"/>
<path d="M320 20 c-9 -6 -10 -10 -3 -10 6 0 15 5 18 10 8 12 4 12 -15 0z"/>
</g>
</svg>
